<mxfile host="Electron" agent="Mozilla/5.0 (Windows NT 10.0; Win64; x64) AppleWebKit/537.36 (KHTML, like Gecko) draw.io/24.7.5 Chrome/126.0.6478.183 Electron/31.3.0 Safari/537.36" version="24.7.5">
  <diagram name="Page-1" id="rA8-k76OslJVHwZHFa6S">
    <mxGraphModel dx="1022" dy="600" grid="1" gridSize="19.685" guides="1" tooltips="0" connect="1" arrows="1" fold="0" page="1" pageScale="1" pageWidth="700" pageHeight="1100" math="0" shadow="0">
      <root>
        <mxCell id="0" />
        <mxCell id="1" parent="0" />
        <mxCell id="rpTtk4-DMB-l15ecbjdh-101" value="" style="endArrow=none;html=1;rounded=0;endFill=0;strokeWidth=1.9685;strokeColor=#0000ee;exitX=0.034;exitY=0.139;exitDx=0;exitDy=0;exitPerimeter=0;" parent="1" source="rpTtk4-DMB-l15ecbjdh-21" edge="1">
          <mxGeometry width="50" height="50" relative="1" as="geometry">
            <mxPoint x="410" y="710" as="sourcePoint" />
            <mxPoint x="320" y="620" as="targetPoint" />
          </mxGeometry>
        </mxCell>
        <mxCell id="rpTtk4-DMB-l15ecbjdh-93" value="" style="endArrow=none;html=1;rounded=0;strokeWidth=1.9685;endFill=0;strokeColor=#0000ee;" parent="1" edge="1">
          <mxGeometry width="50" height="50" relative="1" as="geometry">
            <mxPoint x="400" y="580" as="sourcePoint" />
            <mxPoint x="317" y="580" as="targetPoint" />
          </mxGeometry>
        </mxCell>
        <mxCell id="rpTtk4-DMB-l15ecbjdh-100" value="" style="endArrow=none;html=1;rounded=0;endFill=0;strokeWidth=1.9685;strokeColor=#3333ff;" parent="1" edge="1">
          <mxGeometry width="50" height="50" relative="1" as="geometry">
            <mxPoint x="300" y="800" as="sourcePoint" />
            <mxPoint x="400" y="800" as="targetPoint" />
          </mxGeometry>
        </mxCell>
        <mxCell id="rpTtk4-DMB-l15ecbjdh-89" value="" style="endArrow=none;html=1;rounded=0;endFill=0;strokeWidth=1.9685;strokeColor=#1a5fb4;" parent="1" edge="1">
          <mxGeometry width="50" height="50" relative="1" as="geometry">
            <mxPoint x="206" y="749" as="sourcePoint" />
            <mxPoint x="206" y="660" as="targetPoint" />
          </mxGeometry>
        </mxCell>
        <mxCell id="rpTtk4-DMB-l15ecbjdh-41" value="" style="group" parent="1" vertex="1" connectable="0">
          <mxGeometry x="400" y="520" width="199.5" height="110" as="geometry" />
        </mxCell>
        <mxCell id="rpTtk4-DMB-l15ecbjdh-42" value="&lt;div style=&quot;font-size: 14px;&quot; align=&quot;left&quot;&gt;&lt;pre style=&quot;&quot;&gt;&lt;font face=&quot;Helvetica&quot;&gt;&amp;nbsp;&amp;nbsp;&lt;font style=&quot;font-size: 14px;&quot;&gt;program&lt;/font&gt;&lt;/font&gt;&lt;/pre&gt;&lt;/div&gt;" style="swimlane;whiteSpace=wrap;html=1;rounded=1;strokeColor=#0000ee;fillColor=#fff2cc;swimlaneFillColor=#fff2cc;startSize=27;strokeWidth=1.9685;align=left;" parent="rpTtk4-DMB-l15ecbjdh-41" vertex="1">
          <mxGeometry y="1.6923076923076923" width="199.5" height="91.38461538461539" as="geometry" />
        </mxCell>
        <mxCell id="rpTtk4-DMB-l15ecbjdh-48" value="&lt;blockquote style=&quot;margin: 1px 0px 0px;&quot;&gt;&lt;div&gt;&lt;pre style=&quot;margin-top: 0px; padding-bottom: 0px; padding-left: 0px;&quot;&gt;s1 = sortable(…)&lt;br&gt;s2 = sortable(…)&lt;br&gt;&lt;br&gt;… = s1 &amp;lt; s2&lt;/pre&gt;&lt;/div&gt;&lt;/blockquote&gt;&lt;p&gt;&lt;/p&gt;" style="text;html=1;whiteSpace=wrap;overflow=hidden;rounded=0;" parent="rpTtk4-DMB-l15ecbjdh-42" vertex="1">
          <mxGeometry x="16.64" y="22.69" width="135.84" height="67.31" as="geometry" />
        </mxCell>
        <mxCell id="rpTtk4-DMB-l15ecbjdh-26" value="" style="group;fillColor=#cce5ff;strokeColor=#1a5fb4;rounded=1;strokeWidth=1.9685;rotation=0;" parent="1" vertex="1" connectable="0">
          <mxGeometry x="376.3" y="681.23" width="255.9" height="148.77" as="geometry" />
        </mxCell>
        <mxCell id="rpTtk4-DMB-l15ecbjdh-21" value="&lt;pre&gt;&lt;b&gt;&lt;font face=&quot;Helvetica&quot; style=&quot;font-size: 14px;&quot;&gt;mod_sortable_extensions&lt;/font&gt;&lt;/b&gt;&lt;/pre&gt;" style="swimlane;whiteSpace=wrap;html=1;rounded=1;strokeColor=none;fillColor=none;swimlaneFillColor=none;startSize=27;strokeWidth=1.9685;" parent="rpTtk4-DMB-l15ecbjdh-26" vertex="1">
          <mxGeometry width="255.9" height="146.91" as="geometry" />
        </mxCell>
        <mxCell id="rpTtk4-DMB-l15ecbjdh-22" value="&lt;div align=&quot;left&quot;&gt;&lt;pre style=&quot;margin-top: 0px; margin-bottom: 0px; margin-left: 0px;&quot;&gt;&lt;font face=&quot;Courier New&quot;&gt;(sortable) sortable_string&lt;br&gt;  %character(:) :: string&lt;br&gt;  %less_than =&amp;gt; less_than_string&lt;/font&gt;&lt;font face=&quot;Helvetica&quot;&gt;&lt;br&gt;&lt;/font&gt;&lt;/pre&gt;&lt;/div&gt;" style="text;html=1;whiteSpace=wrap;overflow=hidden;rounded=0;fillColor=#fff2cc;strokeColor=#d6b656;rotation=0;" parent="rpTtk4-DMB-l15ecbjdh-21" vertex="1">
          <mxGeometry x="10.449999999999989" y="35.54" width="235" height="55" as="geometry" />
        </mxCell>
        <mxCell id="64eOtdVf9VpqQUz7Mp6y-2" value="&lt;pre style=&quot;margin-top: 0px; margin-bottom: 0px;&quot;&gt;less_than_string()&lt;/pre&gt;" style="text;html=1;whiteSpace=wrap;overflow=hidden;rounded=0;" parent="rpTtk4-DMB-l15ecbjdh-21" vertex="1">
          <mxGeometry x="12.5" y="112.57691499999996" width="133.94" height="18.298710000000003" as="geometry" />
        </mxCell>
        <mxCell id="rpTtk4-DMB-l15ecbjdh-23" value="" style="endArrow=none;html=1;rounded=0;strokeColor=#1a5fb4;strokeWidth=1.9685;" parent="rpTtk4-DMB-l15ecbjdh-26" edge="1">
          <mxGeometry width="50" height="50" relative="1" as="geometry">
            <mxPoint x="254.75" y="99.76999999999998" as="sourcePoint" />
            <mxPoint x="1" y="100.0514375" as="targetPoint" />
          </mxGeometry>
        </mxCell>
        <mxCell id="rpTtk4-DMB-l15ecbjdh-51" value="" style="group;fillColor=#99FF99;strokeColor=#82b366;strokeWidth=1.9685;rounded=1;fillStyle=solid;" parent="1" vertex="1" connectable="0">
          <mxGeometry x="108.2428695652174" y="750" width="196" height="80" as="geometry" />
        </mxCell>
        <mxCell id="rpTtk4-DMB-l15ecbjdh-52" value="smod_constructor" style="swimlane;whiteSpace=wrap;html=1;rounded=1;strokeColor=#1a5fb4;fillColor=#cdeb8b;swimlaneFillColor=#CCFF99;startSize=27;strokeWidth=1.9685;" parent="rpTtk4-DMB-l15ecbjdh-51" vertex="1">
          <mxGeometry width="196" height="80" as="geometry" />
        </mxCell>
        <mxCell id="rpTtk4-DMB-l15ecbjdh-56" value="&lt;pre style=&quot;margin-top: 0px;&quot;&gt;create_sortable()&lt;/pre&gt;" style="text;html=1;whiteSpace=wrap;overflow=hidden;rounded=0;" parent="rpTtk4-DMB-l15ecbjdh-52" vertex="1">
          <mxGeometry x="11.96" y="53.32" width="158.04" height="24.68" as="geometry" />
        </mxCell>
        <mxCell id="rpTtk4-DMB-l15ecbjdh-57" value="" style="line;strokeWidth=1.9685;fillColor=none;align=left;verticalAlign=middle;spacingTop=-1;spacingLeft=3;spacingRight=3;rotatable=0;labelPosition=right;points=[];portConstraint=eastwest;strokeColor=inherit;" parent="rpTtk4-DMB-l15ecbjdh-52" vertex="1">
          <mxGeometry y="50" width="196" height="8" as="geometry" />
        </mxCell>
        <mxCell id="rpTtk4-DMB-l15ecbjdh-61" value="" style="group;movable=1;resizable=1;rotatable=1;deletable=1;editable=1;locked=0;connectable=1;fillColor=none;strokeColor=none;rounded=0;" parent="1" vertex="1" connectable="0">
          <mxGeometry x="83.2428695652174" y="530" width="236" height="140" as="geometry" />
        </mxCell>
        <mxCell id="rpTtk4-DMB-l15ecbjdh-62" value="&lt;pre&gt;&lt;b&gt;&lt;font face=&quot;Helvetica&quot; style=&quot;font-size: 14px;&quot;&gt;mod_sortable&lt;/font&gt;&lt;/b&gt;&lt;/pre&gt;" style="swimlane;whiteSpace=wrap;html=1;rounded=1;strokeColor=#1a5fb4;fillColor=#cce5ff;swimlaneFillColor=#DAE8FC;startSize=27;strokeWidth=1.9685;rotation=0;" parent="rpTtk4-DMB-l15ecbjdh-61" vertex="1">
          <mxGeometry x="8.485739130434794" y="-14.86" width="227.51426086956522" height="150" as="geometry" />
        </mxCell>
        <mxCell id="rpTtk4-DMB-l15ecbjdh-63" value="&lt;pre style=&quot;margin-top: 0px; margin-bottom: 1px; margin-left: 0px;&quot;&gt;&lt;i&gt;&amp;nbsp;sortable&lt;br&gt;   %less_than&lt;br&gt;   %operator(&amp;lt;) =&amp;gt; less_than &lt;br&gt;&lt;/i&gt;&lt;/pre&gt;" style="text;html=1;whiteSpace=wrap;overflow=hidden;rounded=0;fillColor=#fff2cc;strokeColor=#d6b656;" parent="rpTtk4-DMB-l15ecbjdh-62" vertex="1">
          <mxGeometry x="3.39" y="34.01" width="216.61" height="53.16" as="geometry" />
        </mxCell>
        <mxCell id="64eOtdVf9VpqQUz7Mp6y-3" value="&lt;pre style=&quot;margin-top: 0px;&quot;&gt;&lt;i&gt;sortable()&lt;/i&gt; =&amp;gt; create_sortable&lt;/pre&gt;" style="text;html=1;whiteSpace=wrap;overflow=hidden;rounded=0;" parent="rpTtk4-DMB-l15ecbjdh-62" vertex="1">
          <mxGeometry x="7.254260869565201" y="95.17999999999995" width="216.53" height="19.68" as="geometry" />
        </mxCell>
        <mxCell id="rpTtk4-DMB-l15ecbjdh-65" value="" style="endArrow=none;html=1;rounded=0;strokeColor=#1a5fb4;strokeWidth=1.9685;" parent="rpTtk4-DMB-l15ecbjdh-61" edge="1">
          <mxGeometry width="50" height="50" relative="1" as="geometry">
            <mxPoint x="236" y="106" as="sourcePoint" />
            <mxPoint x="9.337803387462897" y="105.58227848101265" as="targetPoint" />
          </mxGeometry>
        </mxCell>
        <mxCell id="rpTtk4-DMB-l15ecbjdh-90" value="" style="group" parent="1" vertex="1" connectable="0">
          <mxGeometry x="188.5" y="693.5" width="35" height="30" as="geometry" />
        </mxCell>
        <mxCell id="rpTtk4-DMB-l15ecbjdh-91" value="" style="triangle;whiteSpace=wrap;html=1;rotation=270;fillColor=#cce5ff;strokeColor=#0000ee;strokeWidth=1.9685;" parent="rpTtk4-DMB-l15ecbjdh-90" vertex="1">
          <mxGeometry x="2.5" y="-2.5" width="30" height="35" as="geometry" />
        </mxCell>
        <mxCell id="rpTtk4-DMB-l15ecbjdh-92" value="&lt;pre&gt;&lt;b&gt;&lt;font style=&quot;font-size: 14px;&quot;&gt;h&lt;/font&gt;&lt;/b&gt;&lt;/pre&gt;" style="text;html=1;align=center;verticalAlign=middle;whiteSpace=wrap;rounded=0;fillColor=#cce5ff;strokeColor=none;" parent="rpTtk4-DMB-l15ecbjdh-90" vertex="1">
          <mxGeometry x="12" y="15.5" width="11" height="10" as="geometry" />
        </mxCell>
        <mxCell id="rpTtk4-DMB-l15ecbjdh-103" value="" style="line;strokeWidth=1.9685;fillColor=#0050ef;align=left;verticalAlign=middle;spacingTop=-1;spacingLeft=3;spacingRight=3;rotatable=0;labelPosition=right;points=[];portConstraint=eastwest;strokeColor=#0000ee;fontColor=#ffffff;rotation=0;" parent="1" vertex="1">
          <mxGeometry x="375.7" y="703.5" width="255.22" height="8" as="geometry" />
        </mxCell>
        <mxCell id="rpTtk4-DMB-l15ecbjdh-94" value="" style="group;rotation=0;" parent="1" vertex="1" connectable="0">
          <mxGeometry x="338.5" y="564.5" width="35" height="30" as="geometry" />
        </mxCell>
        <mxCell id="rpTtk4-DMB-l15ecbjdh-95" value="" style="triangle;whiteSpace=wrap;html=1;rotation=180;fillColor=#ffff88;strokeColor=#0000ee;strokeWidth=1.9685;" parent="rpTtk4-DMB-l15ecbjdh-94" vertex="1">
          <mxGeometry x="3" y="-2" width="30" height="35" as="geometry" />
        </mxCell>
        <mxCell id="rpTtk4-DMB-l15ecbjdh-96" value="u" style="text;html=1;align=center;verticalAlign=middle;whiteSpace=wrap;rounded=0;fillColor=#ffff88;strokeColor=none;rotation=-90;" parent="rpTtk4-DMB-l15ecbjdh-94" vertex="1">
          <mxGeometry x="18" y="10" width="11" height="10" as="geometry" />
        </mxCell>
        <mxCell id="rpTtk4-DMB-l15ecbjdh-97" value="" style="group;rotation=-180;" parent="1" vertex="1" connectable="0">
          <mxGeometry x="328.5" y="784.5" width="35" height="30" as="geometry" />
        </mxCell>
        <mxCell id="rpTtk4-DMB-l15ecbjdh-98" value="" style="triangle;whiteSpace=wrap;html=1;rotation=0;fillColor=#ffff88;strokeColor=#0000ee;strokeWidth=1.9685;" parent="rpTtk4-DMB-l15ecbjdh-97" vertex="1">
          <mxGeometry x="3" y="-2" width="30" height="35" as="geometry" />
        </mxCell>
        <mxCell id="rpTtk4-DMB-l15ecbjdh-99" value="u" style="text;html=1;align=center;verticalAlign=middle;whiteSpace=wrap;rounded=0;fillColor=#ffff88;strokeColor=none;rotation=-270;" parent="rpTtk4-DMB-l15ecbjdh-97" vertex="1">
          <mxGeometry x="7" y="10" width="11" height="10" as="geometry" />
        </mxCell>
        <mxCell id="rpTtk4-DMB-l15ecbjdh-112" value="" style="group;rotation=-45;" parent="1" vertex="1" connectable="0">
          <mxGeometry x="336" y="645" width="35" height="30" as="geometry" />
        </mxCell>
        <mxCell id="rpTtk4-DMB-l15ecbjdh-113" value="" style="triangle;whiteSpace=wrap;html=1;rotation=225;fillColor=#ffff88;strokeColor=#0000ee;strokeWidth=1.9685;" parent="rpTtk4-DMB-l15ecbjdh-112" vertex="1">
          <mxGeometry x="3" y="-2" width="30" height="35" as="geometry" />
        </mxCell>
        <mxCell id="rpTtk4-DMB-l15ecbjdh-114" value="u" style="text;html=1;align=center;verticalAlign=middle;whiteSpace=wrap;rounded=0;fillColor=#ffff88;strokeColor=none;rotation=-45;" parent="rpTtk4-DMB-l15ecbjdh-112" vertex="1">
          <mxGeometry x="16" y="14" width="11" height="10" as="geometry" />
        </mxCell>
      </root>
    </mxGraphModel>
  </diagram>
</mxfile>
